<svg xmlns="http://www.w3.org/2000/svg" viewBox="0 0 480 300" width="480" height="300" role="img" aria-label="LFmall x 우리카드 제휴 preview">
  <defs>
    <linearGradient id="wbg" x1="0" y1="0" x2="1" y2="1">
      <stop offset="0" stop-color="#15171c"/><stop offset="1" stop-color="#0a0b0e"/>
    </linearGradient>
  </defs>
  <rect width="480" height="300" fill="url(#wbg)"/>
  <!-- badge -->
  <rect x="160" y="22" width="160" height="22" rx="11" fill="none" stroke="#3a3d45"/>
  <text x="240" y="37" text-anchor="middle" font-family="Segoe UI, sans-serif" font-size="9" letter-spacing="2" fill="#cfd2da">STRATEGIC PARTNERSHIP · 2026</text>
  <!-- partner cards -->
  <rect x="84" y="64" width="140" height="86" rx="8" fill="#16181d" stroke="#2c2f37"/>
  <text x="154" y="86" text-anchor="middle" font-family="Segoe UI, sans-serif" font-size="7.5" letter-spacing="2" fill="#7d818c">E-COMMERCE PARTNER</text>
  <text x="154" y="116" text-anchor="middle" font-family="Georgia, serif" font-size="26" font-weight="800" fill="#fff">LF·mall</text>
  <rect x="104" y="130" width="100" height="3" rx="1.5" fill="#e11d2a"/>
  <text x="240" y="115" text-anchor="middle" font-family="Segoe UI, sans-serif" font-size="22" fill="#fff">×</text>
  <rect x="256" y="64" width="140" height="86" rx="8" fill="#16181d" stroke="#2c2f37"/>
  <text x="326" y="86" text-anchor="middle" font-family="Segoe UI, sans-serif" font-size="7.5" letter-spacing="2" fill="#7d818c">FINANCIAL PARTNER</text>
  <text x="326" y="116" text-anchor="middle" font-family="Segoe UI, sans-serif" font-size="24" font-weight="800" fill="#fff">우리·카드</text>
  <rect x="276" y="130" width="100" height="3" rx="1.5" fill="#1f6fd6"/>
  <!-- title -->
  <text x="240" y="184" text-anchor="middle" font-family="Segoe UI, sans-serif" font-size="17" font-weight="800" fill="#f2f3f5">제휴 포인트 행사 서비스 플로우  →</text>
  <text x="240" y="204" text-anchor="middle" font-family="Segoe UI, sans-serif" font-size="8.5" fill="#9aa0ab">난수코드 기반 회원 식별  ·  행동 기반 포인트 적립  ·  Ver 0.1</text>
  <!-- nav buttons -->
  <g font-family="Segoe UI, sans-serif" font-size="8.5" fill="#dfe2e8">
    <rect x="120" y="220" width="92" height="22" rx="5" fill="none" stroke="#3a3d45"/><text x="166" y="235" text-anchor="middle">난수코드 회원 식별</text>
    <rect x="218" y="220" width="92" height="22" rx="5" fill="none" stroke="#3a3d45"/><text x="264" y="235" text-anchor="middle">행동 기반 적립</text>
    <rect x="316" y="220" width="80" height="22" rx="5" fill="none" stroke="#3a3d45"/><text x="356" y="235" text-anchor="middle">월 정산 프로세스</text>
  </g>
  <!-- light toc strip -->
  <rect x="0" y="258" width="480" height="42" fill="#f3f4f6"/>
  <text x="36" y="276" font-family="Segoe UI, sans-serif" font-size="8.5" font-weight="700" fill="#2b2f38">목차</text>
  <text x="36" y="292" font-family="Segoe UI, sans-serif" font-size="8" fill="#555b66">1. 개요   2. 목적   3. 서비스 플로우   4. 난수코드 URL 전달   5. 개발 체크포인트</text>
</svg>
